<?xml version="1.0" encoding="utf-8"?>
<!-- Generator: Adobe Illustrator 21.0.2, SVG Export Plug-In . SVG Version: 6.00 Build 0)  -->
<svg version="1.1" id="Camada_1" xmlns="http://www.w3.org/2000/svg" xmlns:xlink="http://www.w3.org/1999/xlink" x="0px" y="0px"
	 viewBox="0 0 115.7 76.9" style="enable-background:new 0 0 115.7 76.9;" xml:space="preserve">
<style type="text/css">
	.st0{fill:#183D4D;}
	.st1{fill:#00CE97;}
</style>
<g>
	<g>
		<path class="st0" d="M6.8,15.1h2.3c1.2,0,2.3-0.2,3.3-0.5c1-0.3,1.9-0.8,2.6-1.4c0.7-0.6,1.3-1.4,1.7-2.3c0.4-0.9,0.6-2,0.6-3.3
			c0-1.1-0.2-2.2-0.6-3.1c-0.4-0.9-0.9-1.7-1.6-2.3c-0.7-0.6-1.6-1.1-2.6-1.4c-1-0.3-2.1-0.5-3.3-0.5H1v20.5h5.7V15.1z M6.8,5.5h2.2
			c0.9,0,1.6,0.2,2,0.6c0.5,0.4,0.7,1,0.7,1.8c0,0.7-0.2,1.3-0.7,1.7c-0.5,0.4-1.1,0.6-2,0.6H6.8V5.5z"/>
		<path class="st0" d="M24.8,14.8h1.9l3.8,6H37l-4.6-7.1c1.1-0.5,2-1.3,2.6-2.3c0.7-1,1.1-2.4,1.1-4c0-2-0.6-3.7-1.7-4.8
			c-0.7-0.7-1.5-1.3-2.5-1.7c-1-0.4-2.3-0.6-3.8-0.6H19v20.5h5.7V14.8z M24.8,5.7h3.1c0.8,0,1.4,0.2,1.9,0.5
			c0.4,0.3,0.6,0.8,0.6,1.6c0,0.6-0.2,1.1-0.6,1.5c-0.4,0.4-1.1,0.6-1.9,0.6h-3.2V5.7z"/>
		<polygon class="st0" points="54.2,15.5 44.1,15.5 44.1,13 53.1,13 53.1,8 44.1,8 44.1,5.6 54,5.6 54,0.3 38.4,0.3 38.4,20.8 
			54.2,20.8 		"/>
		<path class="st0" d="M65.8,15.7C65.5,15.9,65,16,64.4,16c-2.1,0-4.1-0.8-5.9-2.3l-0.2-0.2L55,17.6l0.2,0.2c1.2,1.1,2.6,2,4.1,2.5
			c1.5,0.6,3.2,0.8,4.9,0.8c1.2,0,2.2-0.2,3.2-0.5c1-0.3,1.8-0.7,2.5-1.3c0.7-0.6,1.2-1.3,1.6-2.1c0.4-0.8,0.6-1.8,0.6-2.9
			c0-1-0.2-1.8-0.5-2.5c-0.3-0.7-0.8-1.3-1.5-1.8c-0.6-0.5-1.4-0.9-2.3-1.2c-0.9-0.3-1.9-0.6-2.9-0.9c-0.6-0.1-1.2-0.3-1.6-0.4
			c-0.4-0.1-0.7-0.3-0.9-0.4c-0.2-0.1-0.3-0.2-0.4-0.4c-0.1-0.1-0.1-0.3-0.1-0.5c0-0.3,0.1-0.5,0.4-0.7c0.3-0.2,0.7-0.3,1.2-0.3
			c0.8,0,1.7,0.2,2.5,0.5c0.9,0.3,1.7,0.8,2.6,1.4l0.2,0.2l2.9-4.4l-0.2-0.2c-1-0.9-2.2-1.6-3.5-2C66.7,0.2,65.2,0,63.6,0
			c-1.1,0-2.2,0.2-3.1,0.5c-0.9,0.3-1.7,0.8-2.4,1.4c-0.7,0.6-1.2,1.3-1.5,2.1C56.2,4.8,56,5.7,56,6.7c0,1.1,0.2,2,0.6,2.7
			c0.4,0.7,0.9,1.3,1.6,1.8c0.6,0.5,1.4,0.9,2.3,1.2c0.9,0.3,1.8,0.6,2.8,0.8c0.6,0.2,1.2,0.3,1.5,0.4c0.4,0.1,0.7,0.3,0.9,0.4
			c0.2,0.2,0.4,0.3,0.4,0.4c0.1,0.1,0.1,0.2,0.1,0.5C66.3,15.2,66.1,15.5,65.8,15.7z"/>
		<path class="st0" d="M83.2,15.7c-0.3,0.2-0.8,0.3-1.4,0.3c-2.1,0-4.1-0.8-5.9-2.3l-0.2-0.2l-3.2,4.1l0.2,0.2
			c1.2,1.1,2.6,2,4.1,2.5c1.5,0.6,3.2,0.8,4.9,0.8c1.2,0,2.2-0.2,3.2-0.5c1-0.3,1.8-0.7,2.5-1.3c0.7-0.6,1.2-1.3,1.6-2.1
			c0.4-0.8,0.6-1.8,0.6-2.9c0-1-0.2-1.8-0.5-2.5c-0.3-0.7-0.8-1.3-1.5-1.8c-0.6-0.5-1.4-0.9-2.3-1.2c-0.9-0.3-1.9-0.6-2.9-0.9
			c-0.6-0.1-1.2-0.3-1.6-0.4C80.3,7.3,80,7.2,79.7,7c-0.2-0.1-0.3-0.2-0.4-0.4c-0.1-0.1-0.1-0.3-0.1-0.5c0-0.3,0.1-0.5,0.4-0.7
			c0.3-0.2,0.7-0.3,1.2-0.3c0.8,0,1.7,0.2,2.5,0.5c0.9,0.3,1.7,0.8,2.6,1.4l0.2,0.2L89,2.9l-0.2-0.2c-1-0.9-2.2-1.6-3.5-2
			C84.1,0.2,82.6,0,81,0c-1.1,0-2.2,0.2-3.1,0.5c-0.9,0.3-1.7,0.8-2.4,1.4c-0.7,0.6-1.2,1.3-1.5,2.1c-0.3,0.8-0.5,1.7-0.5,2.7
			c0,1.1,0.2,2,0.6,2.7c0.4,0.7,0.9,1.3,1.6,1.8c0.6,0.5,1.4,0.9,2.3,1.2c0.9,0.3,1.8,0.6,2.8,0.8c0.6,0.2,1.2,0.3,1.5,0.4
			c0.4,0.1,0.7,0.3,0.9,0.4c0.2,0.2,0.4,0.3,0.4,0.4c0.1,0.1,0.1,0.2,0.1,0.5C83.6,15.2,83.5,15.5,83.2,15.7z"/>
		<polygon class="st0" points="5.6,48.6 11.4,48.6 11.4,33.6 17,33.6 17,28.2 0,28.2 0,33.6 5.6,33.6 		"/>
		<polygon class="st0" points="24,41.1 30.2,41.1 30.2,48.6 35.9,48.6 35.9,28.2 30.2,28.2 30.2,35.6 24,35.6 24,28.2 18.3,28.2 
			18.3,48.6 24,48.6 		"/>
		<polygon class="st0" points="54.7,43.4 44.6,43.4 44.6,40.8 53.6,40.8 53.6,35.9 44.6,35.9 44.6,33.4 54.6,33.4 54.6,28.2 
			39,28.2 39,48.6 54.7,48.6 		"/>
		<path class="st0" d="M15,65.7c0.6-0.4,1.1-0.8,1.6-1.4c0.6-0.8,0.9-1.8,0.9-3c0-0.7-0.1-1.4-0.3-1.9c-0.2-0.6-0.5-1.1-0.9-1.5
			c-0.6-0.6-1.3-1.1-2.2-1.4c-0.9-0.3-1.9-0.5-3.1-0.5H1v20.5H11c2.3,0,4.1-0.5,5.4-1.5c1.3-1,2-2.5,2-4.3c0-1.4-0.4-2.5-1.1-3.3
			C16.7,66.7,15.9,66.1,15,65.7z M11.3,63.6c-0.4,0.3-0.9,0.4-1.7,0.4h-3V61h3.1c0.7,0,1.3,0.1,1.6,0.4c0.3,0.2,0.5,0.6,0.5,1.1
			C11.8,63,11.7,63.3,11.3,63.6z M6.6,68.4h3.7c0.8,0,1.4,0.1,1.8,0.4c0.3,0.3,0.5,0.6,0.5,1.1c0,0.5-0.2,0.9-0.5,1.1
			c-0.4,0.3-0.9,0.4-1.7,0.4H6.6V68.4z"/>
		<path class="st0" d="M32.3,67.5c0,1.3-0.3,2.3-0.8,2.9c-0.6,0.6-1.3,0.9-2.3,0.9c-1,0-1.7-0.3-2.3-0.9c-0.6-0.6-0.9-1.6-0.9-3V56
			h-5.8v11.5c0,1.6,0.2,3,0.6,4.1c0.4,1.2,1,2.2,1.8,3c0.8,0.8,1.7,1.4,2.8,1.7c1.1,0.4,2.3,0.6,3.7,0.6c1.4,0,2.6-0.2,3.7-0.6
			c1.1-0.4,2.1-1,2.9-1.7c0.8-0.8,1.4-1.8,1.8-3c0.4-1.2,0.6-2.6,0.6-4.3V56h-5.8V67.5z"/>
		<polygon class="st0" points="39.3,61.4 45,61.4 45,76.5 50.7,76.5 50.7,61.4 56.3,61.4 56.3,56 39.3,56 		"/>
		<polygon class="st0" points="57.1,61.4 62.8,61.4 62.8,76.5 68.5,76.5 68.5,61.4 74.1,61.4 74.1,56 57.1,56 		"/>
		<path class="st0" d="M92.3,58.7c-0.9-1-2-1.7-3.3-2.3c-1.3-0.6-2.6-0.8-4.1-0.8c-1.5,0-2.9,0.3-4.1,0.8c-1.3,0.6-2.4,1.3-3.3,2.3
			c-0.9,1-1.7,2.1-2.2,3.4c-0.5,1.3-0.8,2.7-0.8,4.2c0,1.5,0.3,2.8,0.8,4.1c0.5,1.3,1.2,2.4,2.2,3.4c0.9,0.9,2,1.7,3.3,2.3
			c1.3,0.6,2.6,0.8,4.1,0.8c1.5,0,2.9-0.3,4.1-0.8c1.3-0.6,2.4-1.3,3.3-2.3c0.9-1,1.7-2.1,2.2-3.4c0.5-1.3,0.8-2.7,0.8-4.2
			c0-1.5-0.3-2.8-0.8-4.1C94,60.8,93.2,59.7,92.3,58.7z"/>
		<polygon class="st0" points="110,56 110,66 102.7,56 97.5,56 97.5,76.5 103.1,76.5 103.1,66.1 110.7,76.5 115.7,76.5 115.7,56 		
			"/>
	</g>
	<ellipse class="st1" cx="84.9" cy="66.2" rx="6.4" ry="6.4"/>
</g>
</svg>
