<svg xmlns="http://www.w3.org/2000/svg" xmlns:xlink="http://www.w3.org/1999/xlink" version="1.1" x="0px" y="0px" viewBox="0 0 100 125" style="enable-background:new 0 0 100 100;" xml:space="preserve"><g><path d="M50,40.7c-9.6,0-17.4,7.8-17.4,17.4c0,9.6,7.8,17.4,17.4,17.4c9.6,0,17.4-7.8,17.4-17.4C67.4,48.5,59.6,40.7,50,40.7z    M50,62.9c-2.6,0-4.7-2.1-4.8-4.8c0-2.6,2.1-4.7,4.8-4.8c2.6,0,4.7,2.1,4.8,4.8C54.7,60.7,52.6,62.9,50,62.9z"/><path d="M78.1,38.8l3.2-11l0.7-2.3c0.1-0.2,0.1-0.4,0.1-0.6c0.1-0.7-0.2-1.5-0.6-2c-0.3-0.4-0.8-0.7-1.4-0.9   c-0.4-0.1-0.7-0.1-1.1-0.1c-1.1,0.1-2,0.9-2.4,2l-3.8,13c-5.9-1.9-12.7-3-20.1-3.3V20.1c0-1.5-1.3-2.8-2.8-2.8s-2.8,1.3-2.8,2.8   v13.5C39.9,33.8,33,35,27.1,36.8l-3.8-13c-0.4-1.5-2-2.3-3.5-1.9c-1.5,0.4-2.3,2-1.9,3.5l3.9,13.4C11.5,43.3,5,50.2,5,58.1   c0,13.8,19.8,24.6,45,24.6c25.2,0,45-10.8,45-24.6C95,50.2,88.5,43.3,78.1,38.8z M50,77.1c-21.4,0-39.4-8.7-39.4-19s18-19,39.4-19   s39.4,8.7,39.4,19S71.4,77.1,50,77.1z"/></g><text x="0" y="115" fill="#000000" font-size="5px" font-weight="bold" font-family="'Helvetica Neue', Helvetica, Arial-Unicode, Arial, Sans-serif">Created by HIDEYUKI NOZAKI</text><text x="0" y="120" fill="#000000" font-size="5px" font-weight="bold" font-family="'Helvetica Neue', Helvetica, Arial-Unicode, Arial, Sans-serif">from the Noun Project</text></svg>